<svg xmlns="http://www.w3.org/2000/svg" viewBox="0 0 300 480" fill="none" stroke-linecap="round" stroke-linejoin="round">
  <defs>
    <g id="flower-blush">
      <ellipse cx="0" cy="-18" rx="9" ry="15" fill="rgba(212,165,181,0.4)" stroke="#7B5EA7" stroke-width="1.1"/>
      <ellipse cx="0" cy="-18" rx="9" ry="15" fill="rgba(212,165,181,0.4)" stroke="#7B5EA7" stroke-width="1.1" transform="rotate(72)"/>
      <ellipse cx="0" cy="-18" rx="9" ry="15" fill="rgba(212,165,181,0.4)" stroke="#7B5EA7" stroke-width="1.1" transform="rotate(144)"/>
      <ellipse cx="0" cy="-18" rx="9" ry="15" fill="rgba(212,165,181,0.4)" stroke="#7B5EA7" stroke-width="1.1" transform="rotate(216)"/>
      <ellipse cx="0" cy="-18" rx="9" ry="15" fill="rgba(212,165,181,0.4)" stroke="#7B5EA7" stroke-width="1.1" transform="rotate(288)"/>
      <circle cx="0" cy="0" r="5" fill="rgba(212,165,181,0.6)" stroke="#D4A5B5" stroke-width="1"/>
      <line x1="0" y1="0" x2="0" y2="-8" stroke="#D4A5B5" stroke-width="0.8"/>
      <line x1="0" y1="0" x2="7" y2="-4" stroke="#D4A5B5" stroke-width="0.8"/>
      <line x1="0" y1="0" x2="-7" y2="-4" stroke="#D4A5B5" stroke-width="0.8"/>
    </g>
    <g id="flower-lavender">
      <ellipse cx="0" cy="-18" rx="9" ry="15" fill="rgba(176,154,208,0.3)" stroke="#7B5EA7" stroke-width="1.1"/>
      <ellipse cx="0" cy="-18" rx="9" ry="15" fill="rgba(176,154,208,0.3)" stroke="#7B5EA7" stroke-width="1.1" transform="rotate(72)"/>
      <ellipse cx="0" cy="-18" rx="9" ry="15" fill="rgba(176,154,208,0.3)" stroke="#7B5EA7" stroke-width="1.1" transform="rotate(144)"/>
      <ellipse cx="0" cy="-18" rx="9" ry="15" fill="rgba(176,154,208,0.3)" stroke="#7B5EA7" stroke-width="1.1" transform="rotate(216)"/>
      <ellipse cx="0" cy="-18" rx="9" ry="15" fill="rgba(176,154,208,0.3)" stroke="#7B5EA7" stroke-width="1.1" transform="rotate(288)"/>
      <circle cx="0" cy="0" r="5" fill="rgba(212,165,181,0.58)" stroke="#D4A5B5" stroke-width="1"/>
      <line x1="0" y1="0" x2="0" y2="-8" stroke="#D4A5B5" stroke-width="0.8"/>
      <line x1="0" y1="0" x2="7" y2="-4" stroke="#D4A5B5" stroke-width="0.8"/>
      <line x1="0" y1="0" x2="-7" y2="-4" stroke="#D4A5B5" stroke-width="0.8"/>
    </g>
    <g id="flower-white">
      <ellipse cx="0" cy="-18" rx="9" ry="15" fill="rgba(245,240,248,0.7)" stroke="#7B5EA7" stroke-width="1.1"/>
      <ellipse cx="0" cy="-18" rx="9" ry="15" fill="rgba(245,240,248,0.7)" stroke="#7B5EA7" stroke-width="1.1" transform="rotate(72)"/>
      <ellipse cx="0" cy="-18" rx="9" ry="15" fill="rgba(245,240,248,0.7)" stroke="#7B5EA7" stroke-width="1.1" transform="rotate(144)"/>
      <ellipse cx="0" cy="-18" rx="9" ry="15" fill="rgba(245,240,248,0.7)" stroke="#7B5EA7" stroke-width="1.1" transform="rotate(216)"/>
      <ellipse cx="0" cy="-18" rx="9" ry="15" fill="rgba(245,240,248,0.7)" stroke="#7B5EA7" stroke-width="1.1" transform="rotate(288)"/>
      <circle cx="0" cy="0" r="5" fill="rgba(212,165,181,0.54)" stroke="#D4A5B5" stroke-width="1"/>
      <line x1="0" y1="0" x2="0" y2="-8" stroke="#D4A5B5" stroke-width="0.8"/>
      <line x1="0" y1="0" x2="7" y2="-4" stroke="#D4A5B5" stroke-width="0.8"/>
      <line x1="0" y1="0" x2="-7" y2="-4" stroke="#D4A5B5" stroke-width="0.8"/>
    </g>
    <g id="leaf">
      <path d="M0 10C9-3 28-5 38 10C28 24 9 26 0 10Z" stroke="#7B5EA7" stroke-width="1" fill="rgba(123,94,167,0.08)"/>
      <path d="M4 10Q19 6 34 10" stroke="#D4A5B5" stroke-width="0.82" opacity="0.5"/>
    </g>
    <g id="bud">
      <path d="M0 8C2 2 7-1 12 1C15 5 14 11 9 14C4 14 1 12 0 8Z" stroke="#D4A5B5" stroke-width="0.9" fill="rgba(212,165,181,0.18)"/>
      <path d="M1 8Q6 4 11 3" stroke="#D4A5B5" stroke-width="0.72" opacity="0.58"/>
    </g>
  </defs>

  <path d="M64-8C76 24 98 58 125 96C150 131 172 179 182 232C190 279 187 332 176 383" stroke="rgba(123,94,167,0.5)" stroke-width="1.15"/>
  <path d="M120 96C145 108 176 113 204 122C225 130 243 146 250 167" stroke="rgba(123,94,167,0.5)" stroke-width="0.88"/>
  <path d="M145 164C124 178 107 198 97 220C87 242 82 265 81 286" stroke="rgba(123,94,167,0.5)" stroke-width="0.84"/>
  <path d="M172 228C196 238 221 254 236 278C246 296 250 318 249 339" stroke="rgba(123,94,167,0.5)" stroke-width="0.86"/>
  <path d="M173 282C156 302 144 324 138 349C134 367 135 387 141 408" stroke="rgba(123,94,167,0.5)" stroke-width="0.82"/>
  <path d="M100 226C87 236 76 248 68 263C61 276 57 290 57 305" stroke="rgba(123,94,167,0.5)" stroke-width="0.8"/>
  <path d="M213 146C208 159 207 173 210 186" stroke="rgba(123,94,167,0.5)" stroke-width="0.72"/>
  <path d="M231 181C227 194 227 209 231 223" stroke="rgba(123,94,167,0.5)" stroke-width="0.72"/>
  <path d="M118 247C112 260 109 275 109 289" stroke="rgba(123,94,167,0.5)" stroke-width="0.72"/>
  <path d="M87 284C89 297 95 309 102 320" stroke="rgba(123,94,167,0.5)" stroke-width="0.7"/>
  <path d="M188 335C193 348 195 363 193 376" stroke="rgba(123,94,167,0.5)" stroke-width="0.72"/>
  <path d="M225 338C225 352 228 366 235 379" stroke="rgba(123,94,167,0.5)" stroke-width="0.72"/>
  <path d="M145 352C152 366 156 383 155 399" stroke="rgba(123,94,167,0.5)" stroke-width="0.7"/>

  <use href="#leaf" transform="translate(76 68) rotate(-9) scale(.82)"/>
  <use href="#leaf" transform="translate(122 114) rotate(24) scale(.9)"/>
  <use href="#leaf" transform="translate(150 196) rotate(19) scale(.94)"/>
  <use href="#leaf" transform="translate(101 241) rotate(112) scale(.82)"/>
  <use href="#leaf" transform="translate(203 155) rotate(56) scale(.8)"/>
  <use href="#leaf" transform="translate(146 329) rotate(121) scale(.8)"/>

  <path d="M225 134C225 146 225 156 224 168" stroke="#D4A5B5" stroke-width="0.72" opacity="0.62"/>
  <path d="M236 164C239 177 240 187 239 197" stroke="#D4A5B5" stroke-width="0.72" opacity="0.62"/>
  <path d="M211 171C210 182 211 193 214 205" stroke="#D4A5B5" stroke-width="0.72" opacity="0.62"/>
  <path d="M120 258C118 272 120 290 124 308" stroke="#D4A5B5" stroke-width="0.72" opacity="0.6"/>
  <path d="M99 283C95 299 96 315 101 333" stroke="#D4A5B5" stroke-width="0.72" opacity="0.6"/>
  <path d="M82 302C79 317 80 333 85 347" stroke="#D4A5B5" stroke-width="0.72" opacity="0.6"/>
  <path d="M190 243C191 257 194 267 201 275" stroke="#D4A5B5" stroke-width="0.72" opacity="0.58"/>
  <path d="M184 336C183 350 184 365 188 381" stroke="#D4A5B5" stroke-width="0.72" opacity="0.58"/>
  <path d="M145 363C144 380 146 398 150 416" stroke="#D4A5B5" stroke-width="0.72" opacity="0.58"/>
  <path d="M232 352C233 367 236 382 242 398" stroke="#D4A5B5" stroke-width="0.72" opacity="0.58"/>

  <use href="#flower-white" transform="translate(224 150) rotate(-10) scale(.68)"/>
  <use href="#flower-lavender" transform="translate(224 178) rotate(8)"/>
  <use href="#flower-blush" transform="translate(239 204) rotate(-14)"/>
  <use href="#flower-white" transform="translate(211 210) rotate(11) scale(.92)"/>

  <use href="#flower-lavender" transform="translate(122 284) rotate(-4) scale(.68)"/>
  <use href="#flower-white" transform="translate(123 315) rotate(-9)"/>
  <use href="#flower-blush" transform="translate(100 340) rotate(10)"/>
  <use href="#flower-lavender" transform="translate(82 322) rotate(-15)"/>
  <use href="#flower-white" transform="translate(85 355) rotate(12) scale(.7)"/>

  <use href="#flower-blush" transform="translate(201 272) rotate(7)"/>
  <use href="#flower-white" transform="translate(191 304) rotate(-8) scale(.68)"/>
  <use href="#flower-lavender" transform="translate(149 369) rotate(-6)"/>
  <use href="#flower-blush" transform="translate(132 401) rotate(9)"/>
  <use href="#flower-white" transform="translate(160 410) rotate(-12) scale(.68)"/>

  <use href="#flower-lavender" transform="translate(234 374) rotate(8)"/>
  <use href="#flower-white" transform="translate(244 404) rotate(-11) scale(.7)"/>

  <path d="M244 370C248 374 251 381 252 387" stroke="#D4A5B5" stroke-width="0.72" opacity="0.56"/>
  <use href="#bud" transform="translate(244 387) rotate(20) scale(.88)"/>
  <path d="M155 411C161 416 164 423 165 429" stroke="#D4A5B5" stroke-width="0.72" opacity="0.56"/>
  <use href="#bud" transform="translate(154 429) rotate(12) scale(.9)"/>
  <path d="M74 355C70 362 69 370 70 377" stroke="#D4A5B5" stroke-width="0.72" opacity="0.56"/>
  <use href="#bud" transform="translate(64 378) rotate(-18) scale(.88)"/>
  <path d="M205 205C205 214 207 222 211 229" stroke="#D4A5B5" stroke-width="0.72" opacity="0.56"/>
  <use href="#bud" transform="translate(208 229) rotate(10) scale(.82)"/>

  <line x1="259" y1="58" x2="259" y2="64" stroke="#D4A5B5" stroke-width="0.95" opacity="0.7"/>
  <line x1="256" y1="61" x2="262" y2="61" stroke="#D4A5B5" stroke-width="0.95" opacity="0.7"/>
  <line x1="246" y1="214" x2="246" y2="220" stroke="#D4A5B5" stroke-width="0.9" opacity="0.6"/>
  <line x1="243" y1="217" x2="249" y2="217" stroke="#D4A5B5" stroke-width="0.9" opacity="0.6"/>
  <line x1="52" y1="334" x2="52" y2="340" stroke="#D4A5B5" stroke-width="0.88" opacity="0.58"/>
  <line x1="49" y1="337" x2="55" y2="337" stroke="#D4A5B5" stroke-width="0.88" opacity="0.58"/>
  <line x1="176" y1="454" x2="176" y2="460" stroke="#D4A5B5" stroke-width="0.85" opacity="0.56"/>
  <line x1="173" y1="457" x2="179" y2="457" stroke="#D4A5B5" stroke-width="0.85" opacity="0.56"/>

  <path d="M252 79L253.3 83.8L258.1 85L253.3 86.2L252 91L250.7 86.2L245.9 85L250.7 83.8Z" stroke="#7B5EA7" stroke-width="1" fill="rgba(123,94,167,0.12)"/>
</svg>
